<?xml version="1.0" standalone="no"?>
<!DOCTYPE svg PUBLIC "-//W3C//DTD SVG 20010904//EN"
 "http://www.w3.org/TR/2001/REC-SVG-20010904/DTD/svg10.dtd">
<svg version="1.0" xmlns="http://www.w3.org/2000/svg"
 width="1280.000000pt" height="938.000000pt" viewBox="0 0 1280.000000 938.000000"
 preserveAspectRatio="xMidYMid meet">
<metadata>
Created by potrace 1.15, written by Peter Selinger 2001-2017
</metadata>
<g transform="translate(0.000000,938.000000) scale(0.100000,-0.100000)"
fill="#000000" stroke="none">
<path d="M9724 9366 c-321 -61 -564 -233 -684 -484 l-32 -67 -108 3 c-442 13
-835 -252 -931 -626 -38 -149 -19 -344 46 -472 l26 -51 -45 -50 c-132 -147
-196 -309 -196 -499 0 -363 269 -673 678 -782 102 -27 338 -35 437 -16 l71 14
34 -60 c47 -80 177 -216 260 -271 351 -233 817 -229 1163 9 l69 47 61 -40 c86
-56 185 -99 297 -129 83 -22 116 -25 260 -26 139 0 179 3 253 22 394 99 659
383 684 733 l6 87 80 21 c397 106 667 442 644 800 -10 159 -61 291 -164 421
-118 152 -287 256 -530 326 -9 2 -13 24 -13 61 -1 177 -86 368 -231 512 -273
273 -732 358 -1112 206 l-66 -27 -66 66 c-121 120 -274 206 -450 252 -123 32
-329 41 -441 20z"/>
<path d="M6291 8169 c-105 -37 -172 -106 -204 -211 -4 -10 -25 -20 -57 -27
-225 -48 -329 -265 -211 -441 28 -41 28 -44 14 -79 -21 -49 -13 -163 14 -216
30 -58 113 -131 189 -167 76 -35 196 -48 283 -29 51 11 54 10 84 -15 48 -41
141 -81 218 -95 113 -20 240 13 326 85 29 25 31 25 79 10 27 -9 87 -16 134
-16 144 0 257 59 315 163 24 45 30 67 31 127 l2 73 53 37 c78 55 113 116 118
209 3 67 0 80 -29 139 -49 100 -165 180 -291 200 -34 6 -42 13 -68 58 -57 101
-169 174 -302 196 -83 14 -163 3 -242 -33 -51 -23 -52 -23 -82 -5 -94 57 -268
75 -374 37z"/>
<path d="M2475 7433 c-352 -24 -770 -149 -1090 -325 -516 -286 -927 -740
-1149 -1271 -107 -255 -160 -467 -201 -812 -57 -469 -41 -762 60 -1130 69
-252 157 -444 327 -713 60 -96 133 -224 163 -285 84 -172 230 -356 398 -500
169 -146 296 -297 366 -435 20 -40 71 -180 171 -467 82 -236 114 -463 113
-810 0 -250 -11 -389 -48 -582 -8 -43 -15 -84 -15 -90 0 -10 336 -13 1645 -13
905 0 1645 4 1645 8 0 64 38 369 69 554 58 339 66 437 47 540 -21 119 -39 351
-31 422 12 112 31 161 80 204 48 42 88 57 201 72 40 5 82 14 96 19 13 5 60 12
103 16 44 3 118 15 165 25 47 11 142 24 212 30 190 16 291 48 338 107 40 50
109 207 120 273 14 75 8 155 -21 282 -18 77 -28 98 -70 151 -119 150 -150 195
-164 241 -20 67 -18 150 5 214 11 28 28 74 38 102 l19 49 16 -35 c54 -112 672
-1119 920 -1499 105 -161 123 -194 116 -213 -5 -13 -9 -48 -9 -79 0 -53 -2
-58 -39 -90 -22 -18 -45 -49 -51 -68 -24 -72 54 -167 161 -195 l37 -10 -27
-50 -26 -50 20 -37 c14 -26 35 -45 68 -62 34 -17 47 -29 47 -45 0 -37 38 -85
84 -108 34 -16 73 -55 154 -152 163 -197 216 -275 303 -453 l79 -163 932 0
931 0 -7 133 c-10 212 -45 682 -70 952 -23 245 -25 252 -65 356 -66 170 -104
210 -309 329 -61 36 -187 125 -278 198 -188 149 -360 267 -449 309 -55 26 -71
28 -200 31 -219 6 -515 -21 -701 -63 -38 -9 -130 -35 -204 -59 -74 -24 -159
-51 -187 -59 l-53 -15 -33 46 c-19 26 -173 245 -342 487 -170 242 -355 505
-412 583 -58 79 -102 146 -100 148 10 11 161 -189 432 -571 109 -154 242 -341
294 -415 70 -98 107 -141 136 -157 47 -27 46 -27 70 -9 20 14 56 -41 -519 806
-254 376 -269 395 -317 427 -37 24 -53 28 -116 29 -66 0 -76 3 -102 28 -33 31
-58 29 -128 -10 -62 -35 -97 -86 -89 -126 l6 -32 -39 38 -40 39 34 40 c66 76
55 122 -61 262 -79 96 -106 150 -106 215 1 77 24 115 132 219 141 136 161 191
121 320 -27 89 -89 176 -194 278 -107 103 -178 158 -457 352 -113 79 -220 157
-238 174 -54 52 -72 101 -72 199 0 62 -7 110 -25 173 -202 695 -701 1266
-1364 1560 -388 172 -822 248 -1256 218z m5868 -6338 c62 -25 117 -40 184 -49
53 -6 98 -16 100 -22 6 -19 -161 -114 -279 -159 -46 -17 -48 -17 -72 3 -14 11
-57 54 -96 97 l-69 76 62 49 c34 26 67 47 72 45 6 -2 50 -20 98 -40z"/>
<path d="M5059 7375 c-30 -10 -60 -30 -86 -58 -34 -36 -50 -46 -98 -55 -31 -7
-72 -21 -90 -32 -65 -40 -114 -149 -102 -225 4 -26 0 -46 -18 -78 -53 -92 -38
-201 36 -276 39 -39 112 -71 161 -71 10 0 18 -4 18 -10 0 -20 66 -84 105 -101
49 -23 123 -24 172 -4 34 14 39 14 80 -6 93 -45 177 -34 249 33 28 26 50 58
62 90 14 40 24 52 60 69 72 35 122 120 122 207 0 65 -41 146 -91 181 -30 20
-38 33 -39 57 0 16 -11 53 -25 81 -42 84 -115 126 -208 122 -47 -2 -59 1 -87
25 -71 59 -143 76 -221 51z"/>
</g>
</svg>
